# xmcd
#
# Track frame offsets: 
#        150
#        36067
#        52980
#        76242
#        101217
#        131440
#        157407
#        177672
#
# Disc length: 2881 seconds
#
# Revision: 2
# Processed by: cddbd v1.5.2PL0 Copyright (c) Steve Scherf et al.
# Submitted via: ExactAudioCopy v0.99pb4
#
DISCID=690b3f08
DTITLE=Big Mama Thornton - The Way It Is
DYEAR=1969
DGENRE=Blues
TTITLE0=Little Red Rooster
TTITLE1=One Black Rat
TTITLE2=Rock Me Baby
TTITLE3=Wade in the Water
TTITLE4=Sweet Little Angel
TTITLE5=Baby Please/Mojo Workin'
TTITLE6=Watermelon Man
TTITLE7=Don't Need No Doctor
EXTD=Recorded live October 1969 at Thee Experience in Los Angeles, CA
EXTT0=
EXTT1=
EXTT2=
EXTT3=
EXTT4=
EXTT5=
EXTT6=
EXTT7=
PLAYORDER=
